<svg xmlns="http://www.w3.org/2000/svg" viewBox="0 0 120 120">
  <defs>
    <linearGradient id="topFace" x1="0%" y1="0%" x2="100%" y2="100%">
      <stop offset="0%" style="stop-color:#4dd0e1"/>
      <stop offset="100%" style="stop-color:#0097a7"/>
    </linearGradient>
    <linearGradient id="leftFace" x1="0%" y1="0%" x2="100%" y2="0%">
      <stop offset="0%" style="stop-color:#1976d2"/>
      <stop offset="100%" style="stop-color:#1565c0"/>
    </linearGradient>
    <linearGradient id="rightFace" x1="0%" y1="0%" x2="100%" y2="0%">
      <stop offset="0%" style="stop-color:#0d47a1"/>
      <stop offset="100%" style="stop-color:#1a237e"/>
    </linearGradient>
  </defs>
  <polygon points="60,8 104,32 60,56 16,32" fill="url(#topFace)"/>
  <polygon points="16,32 60,56 60,98 16,74" fill="url(#leftFace)"/>
  <polygon points="104,32 60,56 60,98 104,74" fill="url(#rightFace)"/>
  <line x1="60" y1="8" x2="60" y2="56" stroke="rgba(255,255,255,0.18)" stroke-width="1"/>
  <line x1="38" y1="20" x2="82" y2="44" stroke="rgba(255,255,255,0.18)" stroke-width="1"/>
  <line x1="16" y1="32" x2="104" y2="32" stroke="rgba(255,255,255,0.15)" stroke-width="1"/>
  <line x1="38" y1="44" x2="82" y2="20" stroke="rgba(255,255,255,0.18)" stroke-width="1"/>
  <line x1="16" y1="53" x2="60" y2="77" stroke="rgba(255,255,255,0.12)" stroke-width="1"/>
  <line x1="38" y1="44" x2="38" y2="86" stroke="rgba(255,255,255,0.12)" stroke-width="1"/>
  <line x1="60" y1="77" x2="104" y2="53" stroke="rgba(255,255,255,0.10)" stroke-width="1"/>
  <line x1="82" y1="44" x2="82" y2="86" stroke="rgba(255,255,255,0.10)" stroke-width="1"/>
  <line x1="60" y1="8" x2="104" y2="32" stroke="rgba(255,255,255,0.35)" stroke-width="1.2"/>
  <line x1="60" y1="8" x2="16" y2="32" stroke="rgba(255,255,255,0.25)" stroke-width="1"/>
  <line x1="60" y1="56" x2="60" y2="98" stroke="rgba(255,255,255,0.2)" stroke-width="1"/>
  <text x="60" y="80" font-family="Arial Black, sans-serif" font-size="18" font-weight="900" fill="white" text-anchor="middle" opacity="0.9">A</text>
</svg>